:SAMPLES-PER-SECOND 30
:FULLY-SPECIFIED
:DEGREES
1128
root  43.6637 37.5776 -2.78177 -169.265 -85.6972 -169.295
RightUpLeg  -52.0422 -19.6324 9.75251
RightLeg  27.6087 -4.05425 -2.53683
RightFoot  0.128749 -0.141973 1.4127
RightToes  5.82063e-011 0 -3.6325e-017
Spine  69.1974 -12.4612 9.16406
Spine1  7.2121 -0.373398 -21.5146
HEad  -55.718 2.53928 1.36136
LeftShoulder1  0.48164 -8.58671 5.05508
LeftArm  -62.735 -65.8504 -5.27593
LeftForeArm  82.5861 -42.7166 -5.71535
LeftHand  -0.244104 0.0205437 5.32207
RightShoulder  2.74396 11.7182 10.8401
RightArm  -80.3354 67.2337 -23.9083
RightForeArm  34.884 32.7086 5.24089
RightHand  -23.4142 37.0932 -58.3094
LeftUpLeg  -32.741 8.37673 -5.66909
LeftLeg  49.3173 8.01222 10.3572
LeftFoot  -13.2815 -0.0577527 -5.65468
LeftToes  1.45487e-011 -6.19069e-011 1.65092e-011
1129
root  42.5788 37.5495 -3.40183 177.584 -86.9098 -156.495
RightUpLeg  -50.8929 -19.4253 10.0013
RightLeg  30.9743 -5.50067 -3.79832
RightFoot  -3.43024 -0.0719831 0.690258
RightToes  5.82063e-011 0 -3.6325e-017
Spine  69.0617 -12.6436 9.69561
Spine1  6.77613 -0.862722 -21.1438
HEad  -55.4075 2.8909 2.85731
LeftShoulder1  0.3124 -7.9405 6.48824
LeftArm  -64.0215 -66.347 -5.03557
LeftForeArm  82.2951 -41.353 -5.35734
LeftHand  -0.244104 0.0205437 5.32207
RightShoulder  2.71546 11.5028 10.9167
RightArm  -81.7475 67.7765 -24.9523
RightForeArm  34.9276 32.0774 5.08775
RightHand  -22.7789 36.6209 -57.5181
LeftUpLeg  -37.3337 8.01348 -3.99407
LeftLeg  57.9307 7.20016 12.6851
LeftFoot  -2.0301 0.110154 -1.52203
LeftToes  1.45487e-011 -6.19069e-011 1.65092e-011
1130
root  41.4936 37.4081 -3.9746 163.905 -87.3495 -143.164
RightUpLeg  -49.9106 -19.1943 10.2293
RightLeg  34.3449 -5.80607 -4.50981
RightFoot  -6.70423 -0.0585531 0.386286
RightToes  5.82063e-011 0 -3.6325e-017
Spine  69.2542 -12.6227 9.94201
Spine1  6.37145 -1.15194 -21.426
HEad  -55.2547 3.02582 4.11742
LeftShoulder1  0.151664 -7.00137 7.96492
LeftArm  -65.3735 -67.3648 -4.49885
LeftForeArm  82.1065 -40.0756 -5.03276
LeftHand  -0.244104 0.0205437 5.32207
RightShoulder  2.62526 11.2027 10.6431
RightArm  -82.8213 68.0477 -25.1403
RightForeArm  34.6805 31.0434 4.85765
RightHand  -22.8035 36.6368 -57.5503
LeftUpLeg  -42.0887 7.00365 -2.73177
LeftLeg  64.6621 5.21123 12.455
LeftFoot  5.10024 -0.487363 3.36317
LeftToes  1.45487e-011 -6.19069e-011 1.65092e-011
1131
root  40.3093 37.4099 -4.50039 157.604 -87.8578 -136.876
RightUpLeg  -48.6403 -19.555 10.1188
RightLeg  36.42 -5.75037 -4.81322
RightFoot  -9.64403 -0.082345 1.24634
RightToes  5.82063e-011 0 -3.6325e-017
Spine  69.5621 -12.6392 9.51324
Spine1  6.14669 -1.36197 -22.3263
HEad  -55.8073 3.15015 4.58171
LeftShoulder1  0.0197708 -5.50701 9.36439
LeftArm  -68.2079 -68.7399 -1.96094
LeftForeArm  81.3969 -38.7031 -4.70898
LeftHand  -0.244104 0.0205437 5.32207
RightShoulder  2.41931 10.7146 9.71641
RightArm  -84.8128 68.2096 -24.9734
RightForeArm  34.8408 30.1993 4.65422
RightHand  -22.8696 36.6812 -57.6397
LeftUpLeg  -46.5392 5.56478 -2.0971
LeftLeg  68.063 3.24985 9.6701
LeftFoot  4.66058 -0.713965 4.85989
LeftToes  1.45487e-011 -6.19069e-011 1.65092e-011
1132
root  39.0786 37.5315 -4.99924 140.2 -88.829 -119.384
RightUpLeg  -46.7848 -19.9809 9.5564
RightLeg  37.4421 -6.35464 -5.47458
RightFoot  -12.2537 -0.0668315 2.22883
RightToes  5.82063e-011 0 -3.6325e-017
Spine  69.8797 -12.6253 8.73827
Spine1  6.14533 -1.52793 -23.1535
HEad  -56.494 3.04746 4.72774
LeftShoulder1  -0.0902582 -4.22123 10.9359
LeftArm  -72.4096 -69.9724 1.90604
LeftForeArm  80.7693 -37.1925 -4.36073
LeftHand  -0.244104 0.0205437 5.32207
RightShoulder  2.30029 10.2992 9.33061
RightArm  -86.9305 68.0704 -25.4118
RightForeArm  34.7197 29.699 4.54708
RightHand  -22.6691 36.5144 -57.4071
LeftUpLeg  -50.4879 4.51683 -2.11657
LeftLeg  67.3816 2.45056 7.25417
LeftFoot  0.457997 -0.34844 3.2969
LeftToes  1.45487e-011 -6.19069e-011 1.65092e-011
1133
root  37.8634 37.6199 -5.45695 79.5608 -89.276 -58.8019
RightUpLeg  -44.5007 -19.7977 8.89337
RightLeg  38.1718 -7.40814 -6.48201
RightFoot  -14.4417 -0.0295589 2.54023
RightToes  5.82063e-011 0 -3.6325e-017
Spine  70.1326 -12.4008 8.15508
Spine1  6.10841 -1.46699 -23.6695
HEad  -56.5305 2.51241 5.06591
LeftShoulder1  -0.198061 -3.74185 12.7146
LeftArm  -75.98 -70.7818 4.78329
LeftForeArm  80.8821 -35.8761 -4.05107
LeftHand  -0.244104 0.0205437 5.32207
RightShoulder  2.39188 10.2561 10.1259
RightArm  -87.5653 67.5328 -26.1283
RightForeArm  33.8081 29.257 4.49575
RightHand  -22.4753 36.3599 -57.1725
LeftUpLeg  -53.4972 5.03125 -3.12931
LeftLeg  62.3971 3.11067 7.00109
LeftFoot  -2.31483 -0.101321 1.52643
LeftToes  1.45487e-011 -6.19069e-011 1.65092e-011
1134
root  36.6563 37.7281 -5.85533 23.34 -88.53 -2.52356
RightUpLeg  -42.127 -19.5164 8.11303
RightLeg  38.3311 -8.30606 -7.25686
RightFoot  -16.1299 0.0211668 3.10212
RightToes  5.82063e-011 0 -3.6325e-017
Spine  70.367 -12.064 7.45641
Spine1  5.88168 -1.22484 -24.2426
HEad  -56.1022 1.86582 5.59094
LeftShoulder1  -0.294947 -3.64714 14.3129
LeftArm  -78.4076 -71.3443 6.88515
LeftForeArm  81.1285 -34.869 -3.81698
LeftHand  -0.244104 0.0205437 5.32207
RightShoulder  2.56044 10.4064 11.2669
RightArm  -87.2056 66.9606 -26.2465
RightForeArm  32.9075 28.7961 4.44015
RightHand  -22.547 36.432 -57.2413
LeftUpLeg  -55.3654 7.18542 -6.04586
LeftLeg  53.4747 4.84531 7.44806
LeftFoot  -3.33592 -0.0653441 1.22235
LeftToes  1.45487e-011 -6.19069e-011 1.65092e-011
1135
root  35.4135 37.8807 -6.16321 8.52057 -87.4818 12.6356
RightUpLeg  -39.8848 -19.6379 7.2775
RightLeg  37.9637 -8.99798 -7.72621
RightFoot  -17.3636 0.111083 4.35141
RightToes  5.82063e-011 0 -3.6325e-017
Spine  70.5538 -11.894 6.67386
Spine1  5.67738 -1.02293 -24.9629
HEad  -55.9134 1.43738 6.06431
LeftShoulder1  -0.355045 -3.36621 15.4997
LeftArm  -81.4542 -71.7811 10.6647
LeftForeArm  80.6462 -33.9359 -3.62121
LeftHand  -0.244104 0.0205437 5.32207
RightShoulder  2.62915 10.3732 11.8643
RightArm  -87.7607 66.6365 -25.903
RightForeArm  32.7348 28.4735 4.37742
RightHand  -22.8678 36.6992 -57.6134
LeftUpLeg  -55.9898 10.1981 -10.6837
LeftLeg  41.4177 5.48555 5.65419
LeftFoot  -4.79704 0.0790182 -1.00781
LeftToes  1.45487e-011 -6.19069e-011 1.65092e-011
1136
root  34.0535 37.9211 -6.33246 11.9914 -86.8157 9.448
RightUpLeg  -37.631 -19.6735 6.85736
RightLeg  38.0485 -9.43322 -8.10237
RightFoot  -18.5506 0.214899 5.41116
RightToes  5.82063e-011 0 -3.6325e-017
Spine  70.5371 -11.8874 6.53841
Spine1  5.86028 -0.701141 -25.6426
HEad  -55.9324 1.12871 6.22824
LeftShoulder1  -0.388913 -2.99506 16.4226
LeftArm  -85.3214 -71.956 15.8311
LeftForeArm  79.7196 -33.1395 -3.4691
LeftHand  -0.244104 0.0205437 5.32207
RightShoulder  2.61082 10.1573 12.0474
RightArm  -89.5999 66.4853 -25.719
RightForeArm  32.9397 28.3299 4.33482
RightHand  -23.2409 36.9837 -58.0716
LeftUpLeg  -55.2966 13.6814 -15.7428
LeftLeg  28.5527 2.63024 1.98957
LeftFoot  -5.47809 0.322506 -5.39923
LeftToes  1.45487e-011 -6.19069e-011 1.65092e-011
1137
root  32.5841 37.8058 -6.34303 24.3317 -86.6598 -2.90161
RightUpLeg  -35.3035 -19.4069 6.64617
RightLeg  39.0809 -9.20495 -8.20218
RightFoot  -19.7894 0.373404 6.80343
RightToes  5.82063e-011 0 -3.6325e-017
Spine  70.2666 -11.9241 6.922
Spine1  6.3925 -0.0408601 -26.3547
HEad  -55.4631 0.935555 5.99623
LeftShoulder1  -0.415368 -2.72526 17.1978
LeftArm  -87.4209 -72.0079 18.8323
LeftForeArm  79.1494 -32.7855 -3.40655
LeftHand  -0.244104 0.0205437 5.32207
RightShoulder  2.60711 10.0129 12.2433
RightArm  -91.1491 66.5757 -25.2787
RightForeArm  33.2296 28.2711 4.30656
RightHand  -23.3848 37.0847 -58.2567
LeftUpLeg  -53.7628 16.4894 -19.4006
LeftLeg  19.1457 -1.12975 -0.446413
LeftFoot  -2.95992 0.394063 -5.44485
LeftToes  1.45487e-011 -6.19069e-011 1.65092e-011
1138
root  31.0928 37.6355 -6.22735 31.8592 -86.588 -10.5197
RightUpLeg  -33.8335 -19.4044 5.74019
RightLeg  41.8328 -7.99938 -7.87791
RightFoot  -19.8847 0.641523 10.4634
RightToes  5.82063e-011 0 -3.6325e-017
Spine  70.0149 -12.0513 6.996
Spine1  6.70397 0.502121 -27.1045
HEad  -54.4073 1.20279 5.79503
LeftShoulder1  -0.444327 -2.29478 17.9258
LeftArm  -86.7839 -72.4415 18.3928
LeftForeArm  79.005 -32.6516 -3.38123
LeftHand  -0.244104 0.0205437 5.32207
RightShoulder  2.62469 9.91721 12.5195
RightArm  -91.3805 67.1588 -23.9325
RightForeArm  33.8621 28.104 4.23661
RightHand  -23.2478 36.9945 -58.0733
LeftUpLeg  -52.3461 16.757 -20.0651
LeftLeg  16.7201 -1.33253 -1.14164
LeftFoot  0.839038 -0.154526 1.34844
LeftToes  1.45487e-011 -6.19069e-011 1.65092e-011
1139
root  29.6037 37.4952 -6.0354 30.1691 -86.7579 -8.98883
RightUpLeg  -34.3312 -19.5524 3.74834
RightLeg  47.6234 -6.12661 -7.47791
RightFoot  -16.0373 0.490635 15.2133
RightToes  5.82063e-011 0 -3.6325e-017
Spine  70.1169 -11.1623 6.72194
Spine1  5.15892 0.5412 -25.353
HEad  -52.5736 1.0467 4.91816
LeftShoulder1  -0.318903 -4.66942 15.9947
LeftArm  -82.0918 -72.0437 16.3839
LeftForeArm  78.1866 -32.0934 -3.28274
LeftHand  -0.244104 0.0205437 5.32207
RightShoulder  2.64265 10.6547 11.6895
RightArm  -87.724 66.4171 -20.262
RightForeArm  34.3164 27.4622 4.07303
RightHand  -23.2031 36.9874 -57.9863
LeftUpLeg  -52.1668 16.6677 -20.9538
LeftLeg  20.1817 -1.44434 -0.193402
LeftFoot  2.03756 -1.03598 8.85059
LeftToes  1.45487e-011 -6.19069e-011 1.65092e-011
1140
root  28.1398 37.4448 -5.81314 20.3281 -87.138 0.529602
RightUpLeg  -37.0216 -18.7438 0.853589
RightLeg  55.8542 -4.30406 -7.21224
RightFoot  -6.18838 -0.704674 15.9629
RightToes  5.82063e-011 0 -3.6325e-017
Spine  70.9052 -8.08793 6.4675
Spine1  1.02734 0.875696 -18.5969
HEad  -49.2338 -1.22409 1.70665
LeftShoulder1  0.172835 -14.0421 8.05643
LeftArm  -70.8266 -68.8136 14.1312
LeftForeArm  75.6611 -30.8727 -3.09083
LeftHand  -0.244104 0.0205437 5.32207
RightShoulder  2.73432 13.5414 8.56605
RightArm  -77.9099 61.7782 -13.8404
RightForeArm  33.4029 26.1018 3.83023
RightHand  -23.5272 37.2333 -58.3791
LeftUpLeg  -51.2667 14.612 -19.1194
LeftLeg  25.054 1.7986 1.26878
LeftFoot  -0.201979 -1.13011 11.5094
LeftToes  1.45487e-011 -6.19069e-011 1.65092e-011
